<svg width="800" height="450" viewBox="0 0 800 450" fill="none" xmlns="http://www.w3.org/2000/svg">
  <defs>
    <linearGradient id="zBg" x1="0" y1="0" x2="800" y2="450" gradientUnits="userSpaceOnUse">
      <stop offset="0%" stop-color="#070908"/>
      <stop offset="100%" stop-color="#0c120e"/>
    </linearGradient>
  </defs>
  <rect width="800" height="450" fill="url(#zBg)"/>
  <circle cx="400" cy="150" r="220" fill="#37d740" opacity="0.1" filter="blur(60px)"/>
  
  <rect x="60" y="50" width="680" height="350" rx="12" fill="#121614" stroke="#1f2c22" stroke-width="1.5"/>
  <path d="M60 62C60 55.3726 65.3726 50 72 50H728C734.627 50 740 55.3726 740 62V80H60V62Z" fill="#18201b"/>
  <circle cx="80" cy="65" r="4" fill="#ef4444" opacity="0.7"/>
  <circle cx="95" cy="65" r="4" fill="#f59e0b" opacity="0.7"/>
  <circle cx="110" cy="65" r="4" fill="#10b981" opacity="0.7"/>
  <text x="400" y="70" fill="#6ee7b7" font-family="system-ui, sans-serif" font-size="10" text-anchor="middle">z-sports-eta.vercel.app — Sports Venue Booking Engine</text>

  <!-- Content -->
  <text x="400" y="140" fill="#ffffff" font-family="system-ui, sans-serif" font-size="22" font-weight="800" text-anchor="middle">Z Sports — حجز الملاعب الرياضية</text>
  <text x="400" y="168" fill="#9ca3af" font-family="system-ui, sans-serif" font-size="12" text-anchor="middle">نظام جدولة فوري للملاعب (كرة قدم، بادل، كرة سلة، تنس) مع برنامج النقاط</text>

  <!-- 3 Mini Cards -->
  <g transform="translate(90, 205)">
    <rect x="0" y="0" width="180" height="95" rx="8" fill="#171e19" stroke="#25382a"/>
    <text x="20" y="32" fill="#37d740" font-family="system-ui, sans-serif" font-size="13" font-weight="700">Live Court Slots</text>
    <text x="20" y="54" fill="#9ca3af" font-family="system-ui, sans-serif" font-size="10">Real-time availability schedule preventing booking overlaps.</text>
    <text x="20" y="80" fill="#37d740" font-family="monospace" font-size="9">Instant Checkout</text>

    <rect x="215" y="0" width="180" height="95" rx="8" fill="#171e19" stroke="#25382a"/>
    <text x="235" y="32" fill="#37d740" font-family="system-ui, sans-serif" font-size="13" font-weight="700">Multi-Sport Directory</text>
    <text x="235" y="54" fill="#9ca3af" font-family="system-ui, sans-serif" font-size="10">Padel, Football, Tennis &amp; Basketball category pipelines.</text>
    <text x="235" y="80" fill="#37d740" font-family="monospace" font-size="9">4 Sport Categories</text>

    <rect x="430" y="0" width="180" height="95" rx="8" fill="#171e19" stroke="#25382a"/>
    <text x="450" y="32" fill="#37d740" font-family="system-ui, sans-serif" font-size="13" font-weight="700">Points &amp; Rewards</text>
    <text x="450" y="54" fill="#9ca3af" font-family="system-ui, sans-serif" font-size="10">10,000 Pt tier loyalty engine for frequent court bookings.</text>
    <text x="450" y="80" fill="#37d740" font-family="monospace" font-size="9">Loyalty Engine</text>
  </g>

  <!-- Tags -->
  <g transform="translate(90, 340)">
    <rect x="0" y="0" width="80" height="22" rx="4" fill="#1e2c22"/>
    <text x="40" y="15" fill="#a7f3d0" font-family="monospace" font-size="10" text-anchor="middle">Next.js</text>
    <rect x="90" y="0" width="80" height="22" rx="4" fill="#1e2c22"/>
    <text x="130" y="15" fill="#a7f3d0" font-family="monospace" font-size="10" text-anchor="middle">React 19</text>
    <rect x="180" y="0" width="100" height="22" rx="4" fill="#1e2c22"/>
    <text x="230" y="15" fill="#a7f3d0" font-family="monospace" font-size="10" text-anchor="middle">Tailwind CSS</text>
  </g>
</svg>
